<?xml version="1.0" encoding="UTF-8" standalone="no"?>
<!-- Created with Inkscape (http://www.inkscape.org/) -->

<svg
   width="300"
   height="300"
   viewBox="0 0 79.374998 79.375"
   version="1.1"
   id="svg5"
   inkscape:version="1.2.2 (b0a8486, 2022-12-01)"
   sodipodi:docname="Reducer-icon-abstract.svg"
   inkscape:export-filename="Reducer-icon-abstract.png"
   inkscape:export-xdpi="96"
   inkscape:export-ydpi="96"
   xmlns:inkscape="http://www.inkscape.org/namespaces/inkscape"
   xmlns:sodipodi="http://sodipodi.sourceforge.net/DTD/sodipodi-0.dtd"
   xmlns="http://www.w3.org/2000/svg"
   xmlns:svg="http://www.w3.org/2000/svg">
  <sodipodi:namedview
     id="namedview7"
     pagecolor="#505050"
     bordercolor="#ffffff"
     borderopacity="1"
     inkscape:showpageshadow="0"
     inkscape:pageopacity="0"
     inkscape:pagecheckerboard="1"
     inkscape:deskcolor="#505050"
     inkscape:document-units="px"
     showgrid="false"
     inkscape:zoom="2"
     inkscape:cx="131.5"
     inkscape:cy="150"
     inkscape:current-layer="g1017" />
  <defs
     id="defs2" />
  <g
     inkscape:label="Layer 1"
     inkscape:groupmode="layer"
     id="layer1"
     style="display:none" />
  <g
     inkscape:groupmode="layer"
     id="layer2"
     inkscape:label="Layer 2"
     style="display:none">
    <path
       style="fill:#e5e5e5;stroke:#999999;stroke-width:0.529167;stroke-dasharray:none"
       id="path409"
       sodipodi:type="arc"
       sodipodi:cx="45.766609"
       sodipodi:cy="41.098351"
       sodipodi:rx="21.822342"
       sodipodi:ry="23.609213"
       sodipodi:start="6.1086524"
       sodipodi:end="0.17453293"
       sodipodi:arc-type="slice"
       d="m 67.257421,36.998654 a 21.822342,23.609213 0 0 1 0,8.199393 L 45.766609,41.098351 Z"
       inkscape:transform-center-x="-10.911171" />
    <path
       style="fill:#e5e5e5;stroke:#999999;stroke-width:0.529167;stroke-dasharray:none"
       id="path967"
       sodipodi:type="arc"
       sodipodi:cx="61.422802"
       sodipodi:cy="-3.3009574"
       sodipodi:rx="21.822342"
       sodipodi:ry="23.609213"
       sodipodi:start="6.1086524"
       sodipodi:end="0.17453293"
       sodipodi:arc-type="slice"
       d="m 82.913614,-7.4006538 a 21.822342,23.609213 0 0 1 -10e-7,8.19939326 L 61.422802,-3.3009574 Z"
       inkscape:transform-center-x="-9.0476109"
       transform="rotate(45)"
       inkscape:transform-center-y="9.0476107" />
    <path
       style="fill:#e5e5e5;stroke:#999999;stroke-width:0.529167;stroke-dasharray:none"
       id="path969"
       sodipodi:type="arc"
       sodipodi:cx="41.098351"
       sodipodi:cy="-45.766609"
       sodipodi:rx="21.822342"
       sodipodi:ry="23.609213"
       sodipodi:start="6.1086524"
       sodipodi:end="0.17453293"
       sodipodi:arc-type="slice"
       d="m 62.589162,-49.866306 a 21.822342,23.609213 0 0 1 0,8.199394 l -21.490811,-4.099697 z"
       transform="rotate(90)"
       inkscape:transform-center-y="10.911171" />
    <path
       style="fill:#e5e5e5;stroke:#999999;stroke-width:0.529167;stroke-dasharray:none"
       id="path971"
       sodipodi:type="arc"
       sodipodi:cx="-3.3009572"
       sodipodi:cy="-61.422802"
       sodipodi:rx="21.822342"
       sodipodi:ry="23.609213"
       sodipodi:start="6.1086524"
       sodipodi:end="0.17453293"
       sodipodi:arc-type="slice"
       d="m 18.189854,-65.522498 a 21.822342,23.609213 0 0 1 0,8.199393 l -21.4908112,-4.099697 z"
       transform="rotate(135)"
       inkscape:transform-center-y="9.0476109"
       inkscape:transform-center-x="9.047611" />
    <path
       style="fill:#e5e5e5;stroke:#999999;stroke-width:0.529167;stroke-dasharray:none"
       id="path973"
       sodipodi:type="arc"
       sodipodi:cx="-45.766609"
       sodipodi:cy="-41.098351"
       sodipodi:rx="21.822342"
       sodipodi:ry="23.609213"
       sodipodi:start="6.1086524"
       sodipodi:end="0.17453293"
       sodipodi:arc-type="slice"
       d="m -24.275798,-45.198047 a 21.822342,23.609213 0 0 1 0,8.199393 l -21.490811,-4.099697 z"
       transform="scale(-1)"
       inkscape:transform-center-x="10.911171" />
    <path
       style="fill:#e5e5e5;stroke:#999999;stroke-width:0.529167;stroke-dasharray:none"
       id="path975"
       sodipodi:type="arc"
       sodipodi:cx="-61.422802"
       sodipodi:cy="3.3009572"
       sodipodi:rx="21.822342"
       sodipodi:ry="23.609213"
       sodipodi:start="6.1086524"
       sodipodi:end="0.17453293"
       sodipodi:arc-type="slice"
       d="m -39.93199,-0.79873917 a 21.822342,23.609213 0 0 1 0,8.19939327 L -61.422802,3.3009572 Z"
       transform="rotate(-135)"
       inkscape:transform-center-x="9.047611"
       inkscape:transform-center-y="-9.0476108" />
    <path
       style="fill:#e5e5e5;stroke:#999999;stroke-width:0.529167;stroke-dasharray:none"
       id="path977"
       sodipodi:type="arc"
       sodipodi:cx="-41.098351"
       sodipodi:cy="45.766609"
       sodipodi:rx="21.822342"
       sodipodi:ry="23.609213"
       sodipodi:start="6.1086524"
       sodipodi:end="0.17453293"
       sodipodi:arc-type="slice"
       d="m -19.607539,41.666913 a 21.822342,23.609213 0 0 1 0,8.199393 l -21.490812,-4.099697 z"
       transform="rotate(-90)"
       inkscape:transform-center-y="-10.911171" />
    <path
       style="fill:#e5e5e5;stroke:#999999;stroke-width:0.529167;stroke-dasharray:none"
       id="path995"
       sodipodi:type="arc"
       sodipodi:cx="3.3009574"
       sodipodi:cy="61.422802"
       sodipodi:rx="21.822342"
       sodipodi:ry="23.609213"
       sodipodi:start="6.1086524"
       sodipodi:end="0.17453293"
       sodipodi:arc-type="slice"
       d="m 24.791769,57.323106 a 21.822342,23.609213 0 0 1 0,8.199393 L 3.3009574,61.422802 Z"
       transform="rotate(-45)"
       inkscape:transform-center-y="-9.047611"
       inkscape:transform-center-x="-9.0476109" />
    <circle
       style="fill:#e5e5e5;stroke:#999999;stroke-width:0.529168;stroke-dasharray:none"
       id="path997"
       cx="45.985443"
       cy="41.317184"
       r="17.985329" />
  </g>
  <g
     inkscape:groupmode="layer"
     id="layer3"
     inkscape:label="8 gears 1"
     inkscape:transform-center-x="-10.911171"
     style="display:none">
    <path
       style="display:inline;fill:#e5e5e5;stroke:#999999;stroke-width:0.529167;stroke-dasharray:none"
       id="path409-3"
       sodipodi:type="arc"
       sodipodi:cx="45.766609"
       sodipodi:cy="41.098351"
       sodipodi:rx="21.822342"
       sodipodi:ry="23.609213"
       sodipodi:start="6.1086524"
       sodipodi:end="0.17453293"
       sodipodi:arc-type="slice"
       d="m 67.257421,36.998654 a 21.822342,23.609213 0 0 1 0,8.199393 L 45.766609,41.098351 Z"
       inkscape:transform-center-x="-10.911171" />
    <path
       style="display:inline;fill:#e5e5e5;stroke:#999999;stroke-width:0.529167;stroke-dasharray:none"
       id="path1047"
       sodipodi:type="arc"
       sodipodi:cx="61.476768"
       sodipodi:cy="2.0649536"
       sodipodi:rx="21.822342"
       sodipodi:ry="23.609213"
       sodipodi:start="6.1086524"
       sodipodi:end="0.17453293"
       sodipodi:arc-type="slice"
       d="m 82.96758,-2.0347428 a 21.822342,23.609213 0 0 1 0,8.1993933 L 61.476768,2.0649536 Z"
       inkscape:transform-center-x="-9.5490766"
       transform="rotate(40)"
       inkscape:transform-center-y="8.4772893" />
    <path
       style="display:inline;fill:#e5e5e5;stroke:#999999;stroke-width:0.529167;stroke-dasharray:none"
       id="path1049"
       sodipodi:type="arc"
       sodipodi:cx="48.421265"
       sodipodi:cy="-37.934658"
       sodipodi:rx="21.822342"
       sodipodi:ry="23.609213"
       sodipodi:start="6.1086524"
       sodipodi:end="0.17453293"
       sodipodi:arc-type="slice"
       d="m 69.912076,-42.034354 a 21.822342,23.609213 0 0 1 0,8.199393 l -21.490811,-4.099697 z"
       inkscape:transform-center-x="-3.7318405"
       transform="rotate(80)"
       inkscape:transform-center-y="10.938113" />
    <path
       style="display:inline;fill:#e5e5e5;stroke:#999999;stroke-width:0.529167;stroke-dasharray:none"
       id="path1051"
       sodipodi:type="arc"
       sodipodi:cx="12.708913"
       sodipodi:cy="-60.184223"
       sodipodi:rx="21.822342"
       sodipodi:ry="23.609213"
       sodipodi:start="6.1086524"
       sodipodi:end="0.17453293"
       sodipodi:arc-type="slice"
       d="m 34.199724,-64.28392 a 21.822342,23.609213 0 0 1 0,8.199394 l -21.490811,-4.099697 z"
       inkscape:transform-center-x="7.1479233"
       transform="rotate(120)"
       inkscape:transform-center-y="10.330721" />
    <path
       style="display:inline;fill:#e5e5e5;stroke:#999999;stroke-width:0.529167;stroke-dasharray:none"
       id="path1053"
       sodipodi:type="arc"
       sodipodi:cx="-28.950079"
       sodipodi:cy="-54.272923"
       sodipodi:rx="21.822342"
       sodipodi:ry="23.609213"
       sodipodi:start="6.1086524"
       sodipodi:end="0.17453293"
       sodipodi:arc-type="slice"
       d="m -7.4592674,-58.372619 a 21.822342,23.609213 0 0 1 -1e-7,8.199393 l -21.4908115,-4.099697 z"
       inkscape:transform-center-x="10.798469"
       transform="rotate(160)"
       inkscape:transform-center-y="5.6013766" />
    <path
       style="display:inline;fill:#e5e5e5;stroke:#999999;stroke-width:0.529167;stroke-dasharray:none"
       id="path1055"
       sodipodi:type="arc"
       sodipodi:cx="-57.063007"
       sodipodi:cy="-22.966719"
       sodipodi:rx="21.822342"
       sodipodi:ry="23.609213"
       sodipodi:start="6.1086524"
       sodipodi:end="0.17453293"
       sodipodi:arc-type="slice"
       d="m -35.572196,-27.066415 a 21.822342,23.609213 0 0 1 0,8.199393 l -21.490811,-4.099697 z"
       inkscape:transform-center-x="10.798471"
       transform="rotate(-160)"
       inkscape:transform-center-y="-5.6013693" />
    <path
       style="display:inline;fill:#e5e5e5;stroke:#999999;stroke-width:0.529167;stroke-dasharray:none"
       id="path1057"
       sodipodi:type="arc"
       sodipodi:cx="-58.475517"
       sodipodi:cy="19.085867"
       sodipodi:rx="21.822342"
       sodipodi:ry="23.609213"
       sodipodi:start="6.1086524"
       sodipodi:end="0.17453293"
       sodipodi:arc-type="slice"
       d="m -36.984706,14.986171 a 21.822342,23.609213 0 0 1 0,8.199393 l -21.490811,-4.099697 z"
       inkscape:transform-center-x="7.1479288"
       transform="rotate(-120)"
       inkscape:transform-center-y="-10.330719" />
    <path
       style="display:inline;fill:#e5e5e5;stroke:#999999;stroke-width:0.529167;stroke-dasharray:none"
       id="path1059"
       sodipodi:type="arc"
       sodipodi:cx="-32.526684"
       sodipodi:cy="52.207962"
       sodipodi:rx="21.822342"
       sodipodi:ry="23.609213"
       sodipodi:start="6.1086524"
       sodipodi:end="0.17453293"
       sodipodi:arc-type="slice"
       d="m -11.035872,48.108266 a 21.822342,23.609213 0 0 1 0,8.199393 l -21.490812,-4.099697 z"
       inkscape:transform-center-x="-3.7318375"
       transform="rotate(-80)"
       inkscape:transform-center-y="-10.938114" />
    <path
       style="display:inline;fill:#e5e5e5;stroke:#999999;stroke-width:0.529167;stroke-dasharray:none"
       id="path1061"
       sodipodi:type="arc"
       sodipodi:cx="8.6417484"
       sodipodi:cy="60.901367"
       sodipodi:rx="21.822342"
       sodipodi:ry="23.609213"
       sodipodi:start="6.1086524"
       sodipodi:end="0.17453293"
       sodipodi:arc-type="slice"
       d="m 30.13256,56.801671 a 21.822342,23.609213 0 0 1 0,8.199393 L 8.6417484,60.901367 Z"
       inkscape:transform-center-x="-9.5490738"
       transform="rotate(-40)"
       inkscape:transform-center-y="-8.4772939" />
    <circle
       style="fill:#e5e5e5;stroke:#999999;stroke-width:0.529167;stroke-dasharray:none"
       id="path1063"
       cx="46.016472"
       cy="41.271236"
       r="17.625629" />
  </g>
  <g
     inkscape:groupmode="layer"
     id="g1017"
     inkscape:label="8 gears"
     style="display:inline"
     transform="translate(-3.0427083,-2.1166666)">
    <path
       id="path999"
       style="fill:#e5e5e5;stroke:#b2b2b2;stroke-width:1.05833;stroke-dasharray:none;stroke-opacity:1"
       inkscape:transform-center-x="-5.9386591"
       d="m 29.339616,19.143698 a 12.849866,11.876492 0 0 0 -2.231525,0.180557 l 0.424422,2.22462 a 9.7889353,9.788253 0 0 0 -3.601829,1.513079 l -1.284237,-1.889661 a 11.876905,12.849418 45.025413 0 0 -3.155749,3.155247 l 1.890074,1.28443 a 9.7889353,9.788253 0 0 0 -1.513466,3.601578 l -2.224494,-0.424393 a 11.877319,12.84897 0 0 0 0,4.462457 l 2.18118,-0.415955 a 9.7889353,9.788253 0 0 0 1.450745,3.664857 l -1.784039,1.212432 a 12.849418,11.876905 44.974587 0 0 3.155749,3.155529 l 1.176515,-1.731323 a 9.7889353,9.788253 0 0 0 3.665675,1.584515 l -0.380546,1.994564 a 12.849866,11.876492 0 0 0 4.462769,0 l -0.372108,-1.950972 a 9.7889353,9.788253 0 0 0 3.735146,-1.513641 l 1.098887,1.616857 a 11.876905,12.849418 45.025413 0 0 3.155468,-3.155529 l -1.61697,-1.098811 a 9.7889353,9.788253 0 0 0 1.513747,-3.734887 l 1.951389,0.372364 a 11.877319,12.84897 0 0 0 0,-4.462457 L 39.046778,29.16855 A 9.7889353,9.788253 0 0 0 37.460185,25.501723 L 39.188253,24.32754 A 12.849418,11.876905 44.974587 0 0 36.032785,21.172293 L 34.8228,22.95255 a 9.7889353,9.788253 0 0 0 -3.667081,-1.452611 l 0.415141,-2.175684 a 12.849866,11.876492 0 0 0 -2.231244,-0.180557 z" />
    <circle
       style="fill:#ffffff;fill-opacity:1;stroke:none;stroke-width:1.05833;stroke-dasharray:none"
       id="path1092"
       cx="29.339615"
       cy="31.020193"
       r="3.7703125" />
  </g>
  <g
     inkscape:groupmode="layer"
     id="g1087"
     inkscape:label="9 gears"
     inkscape:transform-center-x="-10.911171"
     style="display:inline">
    <path
       id="path1067"
       style="display:inline;fill:#e5e5e5;stroke:#b2b2b2;stroke-width:1.32292;stroke-dasharray:none;stroke-opacity:1"
       inkscape:transform-center-x="-8.9091722"
       d="m 47.009877,30.687627 0.05063,3.626809 a 14.391653,14.39065 0 0 0 -4.464627,0.842993 l -1.21099,-3.477872 a 17.817415,19.277024 60.022008 0 0 -5.797981,3.347078 l 2.432526,2.81757 a 14.391653,14.39065 0 0 0 -2.903418,3.466057 l -3.200895,-1.907914 a 17.818201,19.276174 20.016353 0 0 -2.28991,6.290379 l 3.65702,0.592374 a 14.391653,14.39065 0 0 0 -0.21013,2.404933 14.391653,14.39065 0 0 0 0.159075,2.130687 l -3.605965,0.583935 a 19.276174,17.818201 69.983647 0 0 2.28991,6.290801 l 3.073466,-1.831969 a 14.391653,14.39065 0 0 0 2.890762,3.551708 l -2.29244,2.655553 a 19.277024,17.817415 29.977992 0 0 5.797981,3.347077 l 1.123647,-3.225986 a 14.391653,14.39065 0 0 0 4.548174,0.87337 l -0.04684,3.344546 a 17.817142,19.277319 80.008688 0 0 6.593354,-1.162385 l -1.163725,-3.062704 a 14.391653,14.39065 0 0 0 4.064621,-2.301986 l 2.046024,2.508726 a 17.817833,19.276572 40.025041 0 0 4.303444,-5.127994 l -2.821563,-1.576709 a 14.391653,14.39065 0 0 0 1.57724,-4.400607 l 3.197941,0.610094 a 17.818347,19.276016 0 0 0 0,-6.694576 l -3.241824,0.618531 a 14.391653,14.39065 0 0 0 -1.650237,-4.343647 l 2.938443,-1.642106 a 19.276572,17.817833 49.974959 0 0 -4.303444,-5.128416 l -2.184001,2.677493 a 14.391653,14.39065 0 0 0 -4.018207,-2.228995 l 1.255294,-3.304463 a 19.277319,17.817142 9.9913119 0 0 -6.593355,-1.162385 z" />
    <circle
       style="display:inline;fill:#ffffff;fill-opacity:1;stroke:none;stroke-width:1.05833;stroke-dasharray:none"
       id="circle1458-6"
       cx="47.294022"
       cy="48.548691"
       r="5.8208332" />
  </g>
</svg>
