<?xml version="1.0" encoding="UTF-8" standalone="no"?>
<!-- Created with Inkscape (http://www.inkscape.org/) -->

<svg
   width="900"
   height="600"
   viewBox="0 0 238.125 158.74999"
   version="1.1"
   id="svg8"
   inkscape:version="1.2.2 (b0a8486, 2022-12-01)"
   sodipodi:docname="Vehicle1D-icon-abstract_900x600.svg"
   inkscape:export-filename="Vehicle1D-icon-abstract.png"
   inkscape:export-xdpi="44.549999"
   inkscape:export-ydpi="44.549999"
   xmlns:inkscape="http://www.inkscape.org/namespaces/inkscape"
   xmlns:sodipodi="http://sodipodi.sourceforge.net/DTD/sodipodi-0.dtd"
   xmlns="http://www.w3.org/2000/svg"
   xmlns:svg="http://www.w3.org/2000/svg"
   xmlns:rdf="http://www.w3.org/1999/02/22-rdf-syntax-ns#"
   xmlns:cc="http://creativecommons.org/ns#"
   xmlns:dc="http://purl.org/dc/elements/1.1/">
  <defs
     id="defs2" />
  <sodipodi:namedview
     id="base"
     pagecolor="#ffffff"
     bordercolor="#666666"
     borderopacity="1.0"
     inkscape:pageopacity="0.0"
     inkscape:pageshadow="2"
     inkscape:zoom="0.81423962"
     inkscape:cx="443.9725"
     inkscape:cy="295.98167"
     inkscape:document-units="px"
     inkscape:current-layer="g461"
     showgrid="true"
     showborder="false"
     guidetolerance="10000"
     objecttolerance="20"
     gridtolerance="10000"
     inkscape:window-width="1638"
     inkscape:window-height="1073"
     inkscape:window-x="1357"
     inkscape:window-y="788"
     inkscape:window-maximized="0"
     inkscape:showpageshadow="0"
     inkscape:pagecheckerboard="1"
     inkscape:deskcolor="#d1d1d1" />
  <metadata
     id="metadata5">
    <rdf:RDF>
      <cc:Work
         rdf:about="">
        <dc:format>image/svg+xml</dc:format>
        <dc:type
           rdf:resource="http://purl.org/dc/dcmitype/StillImage" />
      </cc:Work>
    </rdf:RDF>
  </metadata>
  <g
     inkscape:label="Car"
     inkscape:groupmode="layer"
     id="g461"
     style="display:inline;opacity:0.519">
    <path
       style="display:inline;opacity:1;fill:#808080;fill-opacity:1;stroke:none;stroke-width:0.79375;stroke-linecap:butt;stroke-linejoin:miter;stroke-miterlimit:4;stroke-dasharray:none;stroke-opacity:1"
       d="m 164.27616,103.80475 h 37.04167 V 87.929746 l -10.58333,-7.9375 h -15.875 l -10.58334,7.9375 z"
       id="path407"
       inkscape:connector-curvature="0" />
    <path
       style="fill:#808080;fill-opacity:1;stroke:none;stroke-width:0.79375;stroke-linecap:butt;stroke-linejoin:miter;stroke-miterlimit:4;stroke-dasharray:none;stroke-opacity:1"
       d="M 39.922001,103.80475 H 76.963667 V 87.929746 l -10.583333,-7.9375 h -15.875 l -10.583333,7.9375 z"
       id="path409"
       inkscape:connector-curvature="0" />
    <path
       style="fill:#e5e5e5;fill-opacity:1;stroke:#808080;stroke-width:5.2916665;stroke-linecap:butt;stroke-linejoin:miter;stroke-miterlimit:4;stroke-dasharray:none;stroke-opacity:1"
       d="m 76.963667,103.80475 h 87.312493 c 0,0 0.0553,-9.553204 2.64584,-13.229164 2.96237,-4.20362 8.11729,-7.37636 13.22916,-7.9375 5.5446,-0.60864 10.73511,1.63701 14.94896,5.29166 2.97965,2.58423 3.59173,6.74467 4.49792,10.58334 0.60789,2.575054 1.71979,5.291664 1.71979,5.291664 l 12.03854,-0.26458 c 2.13775,-2.52353 3.83646,-9.657304 3.83646,-9.657304 l -1.32292,-12.5677 c 0,0 -7.02756,-3.66544 -11.90625,-5.29167 -3.96875,-1.32291 -11.49761,-2.88026 -18.25625,-3.96874 -7.41395,-1.19402 -24.07708,-2.64584 -24.07708,-2.64584 0,0 -12.1177,-7.49164 -18.52083,-10.58333 -4.27695,-2.06509 -8.64085,-4.06517 -13.22917,-5.29167 -6.02475,-1.61047 -18.52083,-2.64583 -18.52083,-2.64583 H 84.901167 c -4.630208,0 -19.591191,0.5231 -26.430383,1.24551 -13.257116,1.40032 -5.591032,1.29711 -10.611283,4.04615 -7.486424,5.57794 -9.793757,8.17963 -13.229167,13.22917 l -2.645833,10.58333 c -1.940565,7.85273 -1.109224,13.87025 1.322917,21.166674 3.631134,3.14936 5.332163,3.23033 6.614583,2.64583 0,0 0.248133,-9.424624 2.645833,-13.229164 2.35114,-3.73066 6.399904,-6.54302 10.583333,-7.9375 3.346744,-1.11558 7.236589,-1.11558 10.583333,0 4.18343,1.39448 8.232194,4.20684 10.583334,7.9375 2.397701,3.80454 2.645833,13.229164 2.645833,13.229164 z"
       id="path411"
       inkscape:connector-curvature="0"
       sodipodi:nodetypes="ccssssccccsscsscsscccccssssc" />
    <path
       style="display:none;fill:#808080;fill-opacity:1;stroke:#000000;stroke-width:0.79375;stroke-linecap:butt;stroke-linejoin:miter;stroke-miterlimit:4;stroke-dasharray:none;stroke-opacity:1"
       d="m 214.46106,81.673366 c -0.93058,-1.82424 -3.18593,-1.89898 -5.73075,-2.46949 -2.54481,-0.57051 -7.48748,-1.40085 -9.40397,-0.235 -1.9165,1.16585 -2.11556,3.66921 -2.11556,3.66921 l 8.34619,2.06959 8.34619,2.06959 c 0,0 1.48847,-3.27965 0.5579,-5.1039 z"
       id="path413"
       inkscape:connector-curvature="0"
       sodipodi:nodetypes="zzzcccz" />
    <path
       style="display:none;fill:#808080;fill-opacity:1;stroke:#000000;stroke-width:0.79375;stroke-linecap:butt;stroke-linejoin:miter;stroke-miterlimit:4;stroke-dasharray:none;stroke-opacity:1"
       d="m 34.547475,71.494526 c 0,0 2.495047,-0.85228 3.848764,-0.9685 1.353716,-0.11622 4.171595,0.31441 4.171595,0.31441 0,0 0.216251,1.32818 -0.637252,2.88869 -0.853504,1.56051 -3.739142,4.963 -5.446106,5.46293 -1.706954,0.49997 -2.888677,-0.63726 -2.888677,-0.63726 0,0 0.141051,-2.99403 0.314421,-4.1716 0.17337,-1.17756 0.637255,-2.88867 0.637255,-2.88867 z"
       id="path415"
       inkscape:connector-curvature="0"
       sodipodi:nodetypes="czczzczc" />
    <path
       style="display:none;fill:#808080;fill-opacity:1;stroke:#000000;stroke-width:0.79375;stroke-linecap:butt;stroke-linejoin:miter;stroke-miterlimit:4;stroke-dasharray:none;stroke-opacity:1"
       d="m 155.01575,70.731836 -11.90625,-7.9375 c 0,0 -8.13389,-3.99279 -11.90625,-5.29167 -3.77236,-1.29888 -6.15277,-2.1004 -10.58333,-2.64583 -4.43057,-0.54543 -15.875,0 -15.875,0 l 2.64583,13.22916 c 0,0 15.875,0.88195 23.8125,1.32292 7.9375,0.44097 23.8125,1.32292 23.8125,1.32292 z"
       id="path417"
       inkscape:connector-curvature="0"
       sodipodi:nodetypes="cczzcczc" />
    <path
       style="display:none;fill:#ffffff;fill-opacity:1;stroke:#000000;stroke-width:0.79375;stroke-linecap:butt;stroke-linejoin:miter;stroke-miterlimit:4;stroke-dasharray:none;stroke-opacity:1"
       d="m 149.72408,70.731836 c 0.83084,-1.06412 0,-2.64584 0,-2.64584 0,0 -2.44702,-2.18509 -3.96875,-2.64583 -0.8441,-0.25557 -2.64583,0 -2.64583,0 0,0 -1.10833,1.73682 -1.32292,2.64583 -0.21459,0.90901 0,2.64584 0,2.64584 l 2.64583,1.32291 c 0,0 4.46083,-0.25879 5.29167,-1.32291 z"
       id="path419"
       inkscape:connector-curvature="0"
       sodipodi:nodetypes="zcsczccz" />
    <path
       style="display:none;fill:#808080;fill-opacity:1;stroke:#000000;stroke-width:0.79375;stroke-linecap:butt;stroke-linejoin:miter;stroke-miterlimit:4;stroke-dasharray:none;stroke-opacity:1"
       d="m 47.859501,56.179746 5.291666,1.32292 -6.614583,9.26042 -3.96875,1.32291 h -6.614583 c 0,0 2.193674,-3.26057 3.96875,-5.29166 1.775076,-2.03108 7.9375,-6.61459 7.9375,-6.61459 z"
       id="path421"
       inkscape:connector-curvature="0"
       sodipodi:nodetypes="ccccczc" />
    <path
       style="display:none;fill:#808080;fill-opacity:1;stroke:#000000;stroke-width:0.79375;stroke-linecap:butt;stroke-linejoin:miter;stroke-miterlimit:4;stroke-dasharray:none;stroke-opacity:1"
       d="M 100.77617,68.085996 99.453251,54.856836 H 82.255334 c 0,0 -10.137341,0.11806 -13.229167,1.32291 -3.091826,1.20485 -5.154616,1.94315 -6.614583,3.96875 -1.459967,2.0256 -1.322917,7.9375 -1.322917,7.9375 0,0 18.297089,-0.28444 25.135416,0 6.838327,0.28444 14.552087,0 14.552087,0 z"
       id="path423"
       inkscape:connector-curvature="0"
       sodipodi:nodetypes="ccczzczc" />
    <circle
       r="15.742709"
       cy="98.116188"
       cx="59.10429"
       id="circle425"
       style="fill:#4d4d4d;fill-opacity:1;stroke:none;stroke-width:0.79375;stroke-miterlimit:4;stroke-dasharray:none;stroke-opacity:1" />
    <circle
       r="10.186459"
       cy="98.116188"
       cx="59.10429"
       id="circle427"
       style="display:inline;fill:#dadada;fill-opacity:1;stroke:none;stroke-width:0.79375;stroke-miterlimit:4;stroke-dasharray:none;stroke-opacity:1" />
    <circle
       r="15.742709"
       cy="177.79294"
       cx="106.69153"
       id="circle443"
       style="fill:#4d4d4d;fill-opacity:1;stroke:none;stroke-width:0.79375;stroke-miterlimit:4;stroke-dasharray:none;stroke-opacity:1"
       transform="rotate(-30.624529)" />
    <circle
       r="10.186459"
       cy="177.79294"
       cx="106.69153"
       id="circle445"
       style="display:inline;fill:#dadada;fill-opacity:1;stroke:none;stroke-width:0.79375;stroke-miterlimit:4;stroke-dasharray:none;stroke-opacity:1"
       transform="rotate(-30.624529)" />
  </g>
</svg>
