<svg width="12" height="12" viewBox="0 0 12 12" fill="none" xmlns="http://www.w3.org/2000/svg">
<g clip-path="url(#clip0_506_173)">
<path d="M0.104939 10.525L4.87494 0.565002C4.95095 0.396603 5.07393 0.253715 5.22914 0.153484C5.38435 0.0532533 5.56518 -6.10352e-05 5.74994 -6.10352e-05C5.9347 -6.10352e-05 6.11553 0.0532533 6.27074 0.153484C6.42594 0.253715 6.54893 0.396603 6.62494 0.565002L11.3949 10.525C11.4778 10.6785 11.5191 10.8509 11.5147 11.0253C11.5103 11.1996 11.4604 11.3698 11.3699 11.5189C11.2795 11.668 11.1516 11.7908 10.999 11.8752C10.8464 11.9596 10.6743 12.0026 10.4999 12H0.999939C0.82556 12.0026 0.653526 11.9596 0.500911 11.8752C0.348296 11.7908 0.220407 11.668 0.129938 11.5189C0.0394688 11.3698 -0.0104351 11.1996 -0.0148205 11.0253C-0.0192058 10.8509 0.0220799 10.6785 0.104939 10.525V10.525Z" fill="url(#paint0_linear_506_173)"/>
<path d="M6.5 3.5H5V8H6.5V3.5Z" fill="white"/>
<path d="M6.5 9H5V10.5H6.5V9Z" fill="white"/>
</g>
<defs>
<linearGradient id="paint0_linear_506_173" x1="5.74994" y1="2.26105e-06" x2="5.74994" y2="12" gradientUnits="userSpaceOnUse">
<stop stop-color="#FFBC00"/>
<stop offset="1" stop-color="#FFAA00"/>
</linearGradient>
<clipPath id="clip0_506_173">
<rect width="12" height="12" fill="white"/>
</clipPath>
</defs>
</svg>
