<?xml version="1.0" encoding="UTF-8" standalone="no"?>
<!-- Created with Inkscape (http://www.inkscape.org/) -->

<svg
   width="300"
   height="300"
   viewBox="0 0 79.374998 79.375"
   version="1.1"
   id="svg5"
   inkscape:version="1.2.2 (b0a8486, 2022-12-01)"
   sodipodi:docname="MotorDriveUnit-icon-abstract_300x300.svg"
   inkscape:export-filename="MotorDriveUnit-icon-abstract.png"
   inkscape:export-xdpi="96"
   inkscape:export-ydpi="96"
   xmlns:inkscape="http://www.inkscape.org/namespaces/inkscape"
   xmlns:sodipodi="http://sodipodi.sourceforge.net/DTD/sodipodi-0.dtd"
   xmlns="http://www.w3.org/2000/svg"
   xmlns:svg="http://www.w3.org/2000/svg">
  <sodipodi:namedview
     id="namedview7"
     pagecolor="#505050"
     bordercolor="#ffffff"
     borderopacity="1"
     inkscape:showpageshadow="0"
     inkscape:pageopacity="0"
     inkscape:pagecheckerboard="1"
     inkscape:deskcolor="#505050"
     inkscape:document-units="px"
     showgrid="false"
     inkscape:zoom="2"
     inkscape:cx="150"
     inkscape:cy="150"
     inkscape:current-layer="layer2" />
  <defs
     id="defs2" />
  <g
     inkscape:label="Layer 1"
     inkscape:groupmode="layer"
     id="layer1"
     style="display:none" />
  <g
     inkscape:groupmode="layer"
     id="layer2"
     inkscape:label="Layer 2"
     style="display:inline">
    <path
       id="path1706"
       style="fill:#e5e5e5;stroke:#b2b2b2;stroke-width:1.32292;stroke-dasharray:none;stroke-opacity:1"
       d="m 19.632655,25.267707 v 0.0041 a 4.9992024,3.1480715 0 0 0 -4.815986,3.143987 4.9992024,3.1480715 0 0 0 4.815986,3.143987 v 0.0041 h 0.183217 7.17163 v -6.296144 h -7.17163 z" />
    <path
       id="path1714"
       style="fill:#e5e5e5;stroke:#b2b2b2;stroke-width:1.32292;stroke-dasharray:none;stroke-opacity:1"
       d="m 16.457653,31.504632 v 0.0041 a 4.9992024,3.1480715 0 0 0 -4.815986,3.143987 4.9992024,3.1480715 0 0 0 4.815986,3.143987 v 0.0041 h 0.183217 7.17163 v -6.296144 h -7.17163 z" />
    <path
       id="path1716"
       style="fill:#e5e5e5;stroke:#b2b2b2;stroke-width:1.32292;stroke-dasharray:none;stroke-opacity:1"
       d="m 15.399319,37.271639 v 0.0041 a 4.9992024,3.1480715 0 0 0 -4.815986,3.143987 4.9992024,3.1480715 0 0 0 4.815986,3.143987 v 0.0041 h 0.183217 7.17163 v -6.296144 h -7.17163 z" />
    <path
       id="path235"
       style="fill:#f2f2f2;stroke:#b2b2b2;stroke-width:1.32292;stroke-dasharray:none;stroke-opacity:1;fill-opacity:1"
       d="m 26.987499,22.357291 v 0.02429 A 12.633854,18.719271 0 0 0 14.816666,41.076562 12.633854,18.719271 0 0 0 26.987499,59.771545 v 0.02429 H 27.45052 45.574478 V 22.357291 H 27.45052 Z" />
    <ellipse
       style="fill:#f2f2f2;stroke:#b2b2b2;stroke-width:1.32292;stroke-dasharray:none;stroke-opacity:1;fill-opacity:1"
       id="ellipse399"
       cx="46.632816"
       cy="41.076561"
       rx="12.633854"
       ry="18.719271" />
  </g>
  <g
     inkscape:groupmode="layer"
     id="layer3"
     inkscape:label="Layer 3"
     style="display:inline">
    <path
       id="ellipse409"
       style="fill:#f2f2f2;fill-opacity:1;stroke:#b2b2b2;stroke-width:1.5875;stroke-dasharray:none;stroke-opacity:1"
       d="m 48.881766,34.917248 a 4.1568975,6.1591735 0 0 0 -4.156852,6.159314 4.1568975,6.1591735 0 0 0 4.156852,6.159314 4.1568975,6.1591735 0 0 0 0.06615,-0.0036 v 0.0036 H 59.465099 V 34.917248 H 48.947912 v 0.0016 a 4.1568975,6.1591735 0 0 0 -0.06615,-0.0016 z" />
    <ellipse
       style="fill:#f2f2f2;fill-opacity:1;stroke:#b2b2b2;stroke-width:1.5875;stroke-dasharray:none;stroke-opacity:1"
       id="ellipse965"
       cx="60.25885"
       cy="41.076561"
       rx="4.1568975"
       ry="6.1591735" />
    <rect
       style="display:inline;fill:#cccccc;fill-opacity:1;stroke:none;stroke-width:1.32292;stroke-dasharray:none;stroke-opacity:1"
       id="rect1770"
       width="8.7973967"
       height="2.2489581"
       x="48.390839"
       y="36.578644"
       ry="3.6380208"
       rx="1.9843739" />
    <rect
       style="display:inline;fill:#cccccc;fill-opacity:1;stroke:none;stroke-width:1.32292;stroke-dasharray:none;stroke-opacity:1"
       id="rect1950"
       width="8.7973967"
       height="2.2489581"
       x="47.530941"
       y="40.216663"
       ry="3.6380208"
       rx="1.9843739" />
    <rect
       style="display:inline;fill:#cccccc;fill-opacity:1;stroke:none;stroke-width:1.32292;stroke-dasharray:none;stroke-opacity:1"
       id="rect1952"
       width="8.7973967"
       height="2.2489581"
       x="48.589275"
       y="43.656246"
       ry="3.6380208"
       rx="1.9843739" />
  </g>
</svg>
